PathFileType	4	(X/Y/Z)	/Users/itak/Documents/Research/Walk-IL/dataset/trc/00009_00004.trc
DataRate	CameraRate	NumFrames	NumMarkers	Units	OrigDataRate	OrigDataStartFrame	OrigNumFrames
100.000000	100.000000	4	53	mm	100.000000	315	630
Frame#	Time	RPSI			LPSI			L3			STRN			T10			C7			CLAV			RBAK			LBAK			LSHO			LUPA			LAEL			LAOL			LWTS			LWPS			LFRA			LIFD			LHPS			LHTS			RSHO			RUPA			RAEL			RAOL			RWTS			RWPS			RFRA			RIFD			RHTS			RHPS			RBHD			LFHD			RFHD			LBHD			LHIP			RHIP			RASI			LASI			LKNE			LTHI			LANK			LTIP			LTOE			LMT1			LMT5			LHEE			RKNE			RTHI			RANK			RTIP			RTOE			RMT1			RMT5			RHEE			
		X1	Y1	Z1	X2	Y2	Z2	X3	Y3	Z3	X4	Y4	Z4	X5	Y5	Z5	X6	Y6	Z6	X7	Y7	Z7	X8	Y8	Z8	X9	Y9	Z9	X10	Y10	Z10	X11	Y11	Z11	X12	Y12	Z12	X13	Y13	Z13	X14	Y14	Z14	X15	Y15	Z15	X16	Y16	Z16	X17	Y17	Z17	X18	Y18	Z18	X19	Y19	Z19	X20	Y20	Z20	X21	Y21	Z21	X22	Y22	Z22	X23	Y23	Z23	X24	Y24	Z24	X25	Y25	Z25	X26	Y26	Z26	X27	Y27	Z27	X28	Y28	Z28	X29	Y29	Z29	X30	Y30	Z30	X31	Y31	Z31	X32	Y32	Z32	X33	Y33	Z33	X34	Y34	Z34	X35	Y35	Z35	X36	Y36	Z36	X37	Y37	Z37	X38	Y38	Z38	X39	Y39	Z39	X40	Y40	Z40	X41	Y41	Z41	X42	Y42	Z42	X43	Y43	Z43	X44	Y44	Z44	X45	Y45	Z45	X46	Y46	Z46	X47	Y47	Z47	X48	Y48	Z48	X49	Y49	Z49	X50	Y50	Z50	X51	Y51	Z51	X52	Y52	Z52	X53	Y53	Z53	

316	3.15	-56.30669021606445	1059.009887695312	-151.2255554199219	-78.28009033203125	1052.128662109375	-313.6766052246094	-71.89955902099609	1125.958862304688	-237.6616668701172	153.4252777099609	1313.847534179688	-260.1043701171875	-94.49543762207031	1267.467529296875	-234.9682159423828	-47.01200103759766	1533.9423828125	-254.6380767822266	111.2315673828125	1440.050537109375	-262.8876037597656	-90.73749542236328	1399.599243164062	-166.6488647460938	-73.88805389404297	1492.083251953125	-349.7655639648438	22.75098609924316	1494.833374023438	-432.5494079589844	-21.41860198974609	1371.457885742188	-504.7752075195312	-39.74155426025391	1155.619750976562	-528.5269775390625	-85.58180999755859	1145.643188476562	-433.7608337402344	58.80297470092773	906.9556274414062	-478.6613464355469	-21.95674324035645	888.8851928710938	-511.0223999023438	-26.77755355834961	1039.683715820312	-534.4069213867188	95.02742767333984	726.01025390625	-457.28173828125	14.86152935028076	800.6790771484375	-511.5042724609375	82.38510131835938	814.5750122070312	-493.0425415039062	48.83050155639648	1523.182983398438	-88.81940460205078	42.40845489501953	1454.773681640625	-12.57338905334473	4.27585506439209	1189.35400390625	29.13151741027832	-9.266921997070312	1156.000610351562	-64.58979034423828	141.5559539794922	935.1813354492188	-5.398159503936768	85.66368103027344	919.7573852539062	66.12376403808594	21.29367065429688	1113.99609375	46.12931060791016	169.5045623779297	750.9877319335938	-16.54874992370605	182.4470367431641	827.9791259765625	9.445679664611816	132.3846588134766	821.9944458007812	64.51957702636719	21.03850936889648	1709.84326171875	-181.7343139648438	187.7118072509766	1725.54150390625	-310.7687072753906	192.6329956054688	1725.185180664062	-212.3614807128906	5.505254745483398	1714.665771484375	-325.3674011230469	11.10676765441895	958.099609375	-434.605712890625	69.73859405517578	952.0877685546875	-62.8250732421875	162.5323333740234	986.0852661132812	-146.8617248535156	128.9723052978516	1006.166931152344	-379.6792907714844	209.5835113525391	538.738525390625	-405.7112731933594	133.3402557373047	664.990478515625	-436.760498046875	-35.66472625732422	89.76824951171875	-394.3755187988281	63.74651718139648	321.1396789550781	-415.8764343261719	182.697998046875	47.21188735961914	-370.3187255859375	130.8885955810547	61.82171630859375	-342.24658203125	79.27832794189453	64.51355743408203	-435.1161499023438	-90.21034240722656	109.8137512207031	-330.0449829101562	73.05828857421875	515.0742797851562	-125.9730606079102	94.59957885742188	784.9931640625	-74.78985595703125	-64.87698364257812	37.60055160522461	-162.4493103027344	42.81605529785156	391.4725646972656	-130.1811370849609	161.3641357421875	40.44822692871094	-230.2245635986328	95.86785888671875	47.41152191162109	-251.4833984375	86.14949798583984	37.59078979492188	-155.2146148681641	-125.1559219360352	40.77424240112305	-201.2768096923828	
317	3.16	-49.0289421081543	1058.498901367188	-151.5910339355469	-70.69542694091797	1051.663452148438	-314.0825500488281	-64.44976806640625	1125.453857421875	-237.9698486328125	160.9821014404297	1313.107055664062	-260.1867980957031	-86.84539031982422	1267.051025390625	-235.1562805175781	-39.32302856445312	1533.494018554688	-254.8699645996094	118.9201278686523	1439.3564453125	-263.0431518554688	-83.07087707519531	1399.196655273438	-166.8000335693359	-66.07526397705078	1491.609985351562	-349.9350891113281	30.53291320800781	1494.182983398438	-432.7423095703125	-13.82429313659668	1370.80615234375	-504.8462219238281	-32.54789733886719	1154.967651367188	-528.4261474609375	-78.28384399414062	1145.14892578125	-433.5869140625	65.23192596435547	905.9683227539062	-478.5411376953125	-15.65868663787842	888.1712646484375	-510.7680053710938	-19.93246269226074	1038.984375	-534.239013671875	100.8288421630859	724.939208984375	-457.1067810058594	20.8376350402832	799.8310546875	-511.2592163085938	88.42958068847656	813.49609375	-492.9095764160156	56.66590881347656	1522.62744140625	-89.00228118896484	50.18905258178711	1454.2314453125	-12.7401704788208	12.16759586334229	1188.8193359375	29.14550971984863	-1.880956530570984	1155.434814453125	-64.67890167236328	150.3374176025391	935.201904296875	-5.834589004516602	94.67639923095703	919.44091796875	65.78342437744141	29.41051864624023	1113.369506835938	46.22999954223633	179.1815795898438	751.1753540039062	-17.24656295776367	191.7988128662109	828.2155151367188	8.816264152526855	141.8545837402344	821.9140014648438	63.97027587890625	28.95775413513184	1709.185424804688	-181.9445495605469	195.6700592041016	1724.969970703125	-310.9194030761719	200.5749359130859	1724.578002929688	-212.4968414306641	13.47140979766846	1714.053466796875	-325.5747375488281	18.93095588684082	957.7964477539062	-434.9677734375	76.72972869873047	951.3845825195312	-62.95257186889648	169.7383270263672	985.2872314453125	-146.7927093505859	136.6433868408203	1005.715698242188	-379.6751708984375	220.9107666015625	540.5724487304688	-405.3887329101562	143.3116760253906	665.5946655273438	-437.0849304199219	-7.661356449127197	83.21768188476562	-394.5296630859375	82.80451202392578	318.2257690429688	-415.8876647949219	212.2804412841797	48.33213043212891	-369.7256774902344	159.705810546875	61.11017608642578	-341.8303527832031	108.3299865722656	62.0867919921875	-434.8153991699219	-63.07304382324219	101.3136215209961	-330.3392028808594	76.08948516845703	514.3262939453125	-125.8230819702148	100.1094360351562	784.127685546875	-75.16548919677734	-64.87848663330078	37.76974487304688	-162.5556030273438	44.74506378173828	391.0162048339844	-130.0762329101562	161.4731903076172	40.44059371948242	-230.2100982666016	95.96279144287109	47.40497589111328	-251.4596557617188	86.2039794921875	37.59057998657227	-155.2098083496094	-125.130126953125	41.04369735717773	-201.3543853759766	
318	3.17	-41.71997833251953	1057.908569335938	-151.9988861083984	-63.10355758666992	1051.1083984375	-314.5334167480469	-56.9968147277832	1124.860229492188	-238.3384704589844	168.5346984863281	1312.28955078125	-260.3163452148438	-79.19770050048828	1266.548217773438	-235.4197387695312	-31.64156150817871	1532.961669921875	-255.1690673828125	126.6075286865234	1438.582275390625	-263.2476501464844	-75.431640625	1398.705200195312	-167.0321655273438	-58.26188278198242	1491.049682617188	-350.1754150390625	38.32797622680664	1493.454467773438	-432.9949035644531	-6.213671684265137	1370.074340820312	-504.9794311523438	-25.33057022094727	1154.241333007812	-528.3894653320312	-70.96273040771484	1144.575927734375	-433.474365234375	71.69701385498047	904.9100952148438	-478.5070495605469	-9.326845169067383	887.3842163085938	-510.5879821777344	-13.06872940063477	1038.209106445312	-534.1383056640625	106.6825714111328	723.804443359375	-457.0462036132812	26.84826850891113	798.9120483398438	-511.102294921875	94.51235198974609	812.3551025390625	-492.8748168945312	64.46796417236328	1521.982788085938	-89.24463653564453	57.92745590209961	1453.596435546875	-12.96900463104248	20.01428985595703	1188.197143554688	29.09089088439941	5.500869274139404	1154.7783203125	-64.83377838134766	159.0039672851562	935.1002197265625	-6.339059829711914	103.5773239135742	919.0264892578125	65.37966156005859	37.47058868408203	1112.677001953125	46.27734375	188.6755828857422	751.2366943359375	-18.01221656799316	201.0019073486328	828.3190307617188	8.113777160644531	151.1788330078125	821.7157592773438	63.35311889648438	36.90347671508789	1708.457885742188	-182.2069244384766	203.6674041748047	1724.284912109375	-311.1177368164062	208.5423278808594	1723.849365234375	-212.6706848144531	21.47353935241699	1713.373168945312	-325.8442687988281	26.76764678955078	957.3833618164062	-435.35595703125	83.74415588378906	950.6337280273438	-63.11928558349609	176.9720611572266	984.4298095703125	-146.765625	144.3399047851562	1005.167663574219	-379.7137451171875	231.9481506347656	542.2260131835938	-405.1502685546875	153.0740509033203	666.0476684570312	-437.4634704589844	20.45802688598633	77.16849517822266	-394.7624816894531	101.848503112793	315.4347229003906	-415.98486328125	241.5862121582031	49.57934951782227	-368.9241943359375	188.3401184082031	60.65599822998047	-341.2733764648438	137.3628387451172	60.00105667114258	-434.4507446289062	-35.81780242919922	93.40597534179688	-330.8165283203125	79.24423980712891	513.5859375	-125.7534637451172	105.6021957397461	783.1641845703125	-75.53010559082031	-64.86392211914062	37.9521369934082	-162.6684875488281	46.78725433349609	390.5470581054688	-130.0226287841797	161.5824737548828	40.42150115966797	-230.1889953613281	96.06836700439453	47.39623641967773	-251.4378662109375	86.25535583496094	37.5892333984375	-155.210693359375	-125.1106033325195	41.34847640991211	-201.4310150146484	
319	3.18	-34.37533187866211	1057.241943359375	-152.4505767822266	-55.50056076049805	1050.46533203125	-315.0309753417969	-49.53204727172852	1124.179565429688	-238.7666168212891	176.0907287597656	1311.402587890625	-260.4929809570312	-71.55362701416016	1265.95849609375	-235.7586517333984	-23.95853424072266	1532.345581054688	-255.5341796875	134.2979125976562	1437.733520507812	-263.5010986328125	-67.81192779541016	1398.125122070312	-167.3455505371094	-50.44609832763672	1490.40185546875	-350.4866027832031	46.13805770874023	1492.649658203125	-433.3070373535156	1.415406346321106	1369.264282226562	-505.1761474609375	-18.08535003662109	1153.442993164062	-528.4205322265625	-63.61579895019531	1143.925903320312	-433.4276733398438	78.20332336425781	903.7841186523438	-478.5585021972656	-2.953662633895874	886.5267333984375	-510.4875183105469	-6.182163238525391	1037.36083984375	-534.107666015625	112.5925140380859	722.604736328125	-457.0944519042969	32.90323638916016	797.925048828125	-511.0350036621094	100.6424255371094	811.1534423828125	-492.9359130859375	72.23554992675781	1521.25341796875	-89.54662322998047	65.62613677978516	1452.873168945312	-13.26059055328369	27.8128719329834	1187.49169921875	28.96284294128418	12.93145275115967	1154.030395507812	-65.04281616210938	167.5547637939453	934.8760986328125	-6.904237747192383	112.357666015625	918.5164184570312	64.91514587402344	45.47086334228516	1111.9208984375	46.24825286865234	197.980712890625	751.1692504882812	-18.83359909057617	210.0493927001953	828.2869262695312	7.349066734313965	160.3491058349609	821.4009399414062	62.6779670715332	44.87657928466797	1707.666748046875	-182.5230712890625	211.7044830322266	1723.484375	-311.3649597167969	216.5352020263672	1722.99853515625	-212.8859100341797	29.51248359680176	1712.630493164062	-326.1757507324219	34.62504959106445	956.8622436523438	-435.7699584960938	90.78282165527344	949.837646484375	-63.32586288452148	184.2402648925781	983.5127563476562	-146.7784423828125	152.0682830810547	1004.530517578125	-379.7935180664062	242.6809692382812	543.6820068359375	-404.9840087890625	162.6286315917969	666.3395385742188	-437.8836975097656	48.65777587890625	71.63270568847656	-395.1007080078125	120.853385925293	312.7771911621094	-416.1761779785156	270.5964660644531	50.9227409362793	-367.8722229003906	216.7591400146484	60.43823623657227	-340.5578002929688	166.3654022216797	58.24970626831055	-434.0144348144531	-8.50090217590332	86.10651397705078	-331.5210571289062	82.50674438476562	512.8539428710938	-125.7565765380859	111.0901641845703	782.1046752929688	-75.87763214111328	-64.83019256591797	38.14820861816406	-162.7862548828125	48.93889999389648	390.0674743652344	-130.0159912109375	161.68798828125	40.38840484619141	-230.1623687744141	96.18450927734375	47.38248825073242	-251.4168548583984	86.30138397216797	37.58487319946289	-155.2164611816406	-125.0957412719727	41.69052124023438	-201.5064392089844	
